<?xml version="1.0" encoding="UTF-8"?>
<svg id="Capa_1" data-name="Capa 1" xmlns="http://www.w3.org/2000/svg" viewBox="0 0 22.96 32">
  <defs>
    <style>
      .cls-1 {
        fill: #934b1e;
      }

      .cls-2 {
        fill: #495a62;
      }

      .cls-3 {
        fill: #f8b77f;
      }

      .cls-4 {
        fill: #e2905a;
      }

      .cls-5 {
        fill: #677d88;
      }

      .cls-6 {
        fill: #728996;
      }

      .cls-7 {
        fill: #8eacbb;
      }
    </style>
  </defs>
  <g>
    <path class="cls-2" d="M13.89,23.9c1.91,1.93,3.02,2.19,3.56,1.66,.53-.53,.28-1.65-1.63-3.57-1.91-1.93-3.89-3.06-4.42-2.54-.53,.53,.58,2.52,2.49,4.45Z"/>
    <path class="cls-2" d="M16.29,26.8c1.34,2.76,2.49,4.02,2.68,3.94,.22-.1,.15-2.61-.93-5.1-.68-1.57-1.24-2.27-1.93-1.97-.69,.3-1,.7,.18,3.14Z"/>
    <path class="cls-7" d="M16.85,25.13c.41,.64,1.12,.91,1.59,.61,.47-.3,.52-1.06,.11-1.7-.41-.64-1.12-.91-1.59-.61-.47,.3-.52,1.06-.11,1.7Z"/>
    <path class="cls-6" d="M18.76,27.38l-2.12,.21,1.51,4.21,.44,.07s-.58-.9,.87-1.93l-.7-2.57Z"/>
    <path class="cls-7" d="M18.58,31.88s-.94-1.34,.87-1.93c1.8,.93,2.88,1.38,2.88,1.38,0,0,.08,1.02-3.76,.54Z"/>
  </g>
  <g>
    <path class="cls-2" d="M10.24,23.9c-1.91,1.93-3.02,2.19-3.56,1.66-.53-.53-.28-1.65,1.63-3.57,1.91-1.93,3.89-3.06,4.42-2.54,.53,.53-.58,2.52-2.49,4.45Z"/>
    <path class="cls-2" d="M8.96,26.36c1.22,2.82,1.43,4.51,1.24,4.6-.22,.11-2.08-1.59-3.27-4.03-.75-1.54-.91-2.42-.24-2.75s1.18-.31,2.27,2.18Z"/>
    <path class="cls-7" d="M7.29,25.13c-.41,.64-1.12,.91-1.59,.61s-.52-1.06-.11-1.7c.41-.64,1.12-.91,1.59-.61s.52,1.06,.11,1.7Z"/>
    <path class="cls-6" d="M7.79,28.61l1.54-1.47,2.44,4.61-1.07,.1s.21-1.43-1.52-1.01l-1.39-2.23Z"/>
    <path class="cls-7" d="M10.69,31.84s.99-1.3-.8-1.96c-1.83,.86-2.93,1.27-2.93,1.27,0,0-.12,1.01,3.73,.68Z"/>
  </g>
  <path class="cls-6" d="M13.66,20.53h-1.32c-.45,0-.83-.25-.85-.58-.02,.14-.02,.29-.01,.44l.34,5.06s.11,.21,.23,.21h.34c.12,0,.26-.21,.26-.21l1.89-5.06c.03-.15,.06-.3,.07-.44-.08,.33-.5,.58-.96,.58Z"/>
  <path class="cls-5" d="M13.16,20.7h-2.18c-.75,0-1.42-.29-1.5-.67l-.39-4.2c-.12-.68,.51-1.27,1.4-1.28h2.59c.89-.02,1.58,.57,1.52,1.26v4.22c-.04,.38-.69,.67-1.44,.67Z"/>
  <g>
    <path class="cls-6" d="M16.94,15.54c.48,.37,.65,.95,.38,1.3-.27,.35-.88,.34-1.36-.03-.48-.37-.65-.95-.38-1.3s.88-.34,1.36,.03Z"/>
    <path class="cls-2" d="M18.68,16.21c-.65,.01-1.72,.05-2.09,0-.63-.07-.62-1.49-.62-1.62,0-.2,.39-.22,1.48-.15,1.83,.11,4.1,.03,4.1,.64,0,.62-1.13,1.08-2.87,1.11Z"/>
    <polygon class="cls-6" points="20.59 15.93 18.92 16.49 18.43 15.34 18.75 14.42 20.76 14.46 20.59 15.93"/>
    <path class="cls-2" d="M14.64,11.91c-.48,.35-.97,.65-1.48,.96-.02,.01-.04,.03-.06,.04-.04,.03-.08,.07-.12,.1,.19,.3,.42,.63,.7,.99,1.19,1.55,2.23,2.37,2.6,2.4,.29,.02,.87-.9,.9-1.17,.03-.3-1.19-1.94-1.46-2.35-.29-.46-.6-.84-.9-1.14-.05,.06-.11,.12-.18,.17Z"/>
    <g>
      <path class="cls-6" d="M21.57,13.85h0c-.08-.09-.22-.11-.31-.03l-.66,.54c-.09,.08-.11,.22-.03,.31h0c.08,.09,.22,.11,.31,.03l.66-.54c.09-.08,.11-.22,.03-.31Z"/>
      <rect class="cls-7" x="20.42" y="14.22" width="1.93" height="1.86" rx=".88" ry=".88" transform="translate(8.98 38.24) rotate(-97.08)"/>
      <path class="cls-6" d="M22.05,14.43h0c.07-.1,.05-.24-.05-.31l-.46-.33c-.1-.07-.24-.05-.31,.05h0c-.07,.1-.05,.24,.05,.31l.46,.33c.1,.07,.24,.05,.31-.05Z"/>
      <path class="cls-6" d="M22.88,15.72h0c.01,.12-.07,.23-.19,.25l-.78,.1c-.12,.01-.23-.07-.25-.19h0c-.01-.12,.07-.23,.19-.25l.78-.1c.12-.01,.23,.07,.25,.19Z"/>
      <path class="cls-6" d="M22.92,15.22h0c.02,.12-.09,.23-.24,.25l-.72,.07c-.15,.01-.29-.07-.31-.19h0c-.02-.12,.09-.23,.24-.25l.72-.07c.15-.01,.29,.07,.31,.19Z"/>
      <path class="cls-6" d="M22.78,14.23h0c-.01-.12-.13-.21-.25-.19l-.84,.1c-.12,.01-.21,.13-.19,.25h0c.01,.12,.13,.21,.25,.19l.84-.1c.12-.01,.21-.13,.19-.25Z"/>
      <path class="cls-6" d="M22.96,14.7h0c-.02-.12-.16-.21-.31-.19l-.72,.07c-.15,.01-.26,.13-.24,.25h0c.02,.12,.16,.21,.31,.19l.72-.07c.15-.01,.26-.13,.24-.25Z"/>
    </g>
  </g>
  <path class="cls-6" d="M11.77,25.01s-.36-1.62-1.11-2.72c-.49-.72-1.34-1.32-1.34-1.32l.32-.67s1.41,.73,3.26,.42l-1.13,4.29Z"/>
  <path class="cls-2" d="M13.14,20.55h-2.15c-.74,0-1.4-.26-1.48-.59,0,.15,.01,.3,.04,.45l.03,.1c.21,.26,.77,.44,1.4,.44h2.15c.62,0,1.19-.18,1.4-.44l.03-.1c.03-.15,.05-.3,.04-.45-.08,.33-.74,.59-1.48,.59Z"/>
  <path class="cls-5" d="M15.01,13.86c.19,2.06-2.2,5.48-4.09,5.49-1.29,.29-2.39-3.41-2.39-5.46,0-1.94,1.4-2.43,3.12-2.44,1.73-.01,3.18,.46,3.36,2.41Z"/>
  <g>
    <path class="cls-6" d="M12.95,10.45s2.55,.3,3.18,2.26l-2.25,.58-.93-2.84Z"/>
    <path class="cls-2" d="M13.33,13.24c0,.32,.26,.6,.56,.61,.29,.01,.5-.22,.49-.5,0-.28-.23-.54-.5-.58-.29-.05-.54,.16-.54,.48Z"/>
  </g>
  <g>
    <g>
      <path class="cls-6" d="M4.84,11.69c-.6-.08-1.13,.22-1.19,.65-.06,.44,.38,.86,.98,.94,.6,.08,1.13-.22,1.19-.65,.06-.44-.38-.86-.98-.94Z"/>
      <path class="cls-2" d="M3.14,10.93c.45,.46,1.2,1.4,1.49,1.63,.5,.39,1.48-.76,1.57-.85,.14-.14-.12-.43-.95-1.15-1.37-1.21-2.92-2.88-3.36-2.44-.43,.44,.04,1.56,1.24,2.81Z"/>
      <polygon class="cls-6" points="1.98 9.39 2.77 10.96 3.93 10.49 4.35 9.61 2.9 8.22 1.98 9.39"/>
      <path class="cls-2" d="M9.03,10.74c.09,.59,.23,1.15,.37,1.72,0,.02,.01,.05,.02,.07,0,.05,0,.1,.01,.16-.34,.08-.74,.15-1.19,.21-1.94,.26-3.25,.1-3.53-.13-.22-.19,.02-1.25,.19-1.46,.2-.23,2.21-.53,2.69-.64,.53-.12,1.01-.17,1.44-.17,0,.08,0,.16,0,.24Z"/>
      <g>
        <path class="cls-6" d="M2.76,7.22h0c.12-.01,.23,.08,.24,.2l.08,.85c.01,.12-.08,.23-.2,.24h0c-.12,.01-.23-.08-.24-.2l-.08-.85c-.01-.12,.08-.23,.2-.24Z"/>
        <rect class="cls-7" x="1.01" y="7.34" width="1.93" height="1.86" rx=".88" ry=".88" transform="translate(-4.67 2.97) rotate(-37.99)"/>
        <g>
          <path class="cls-2" d="M3.28,7.25s.04,.04,.06,.05c-.02,.01-.03,.03-.05,.04l-2.33,1.77c-.24,.18-.51,.23-.6,.1-.09-.12,.02-.37,.26-.55l2.33-1.77s.03-.02,.04-.03l.29,.39Z"/>
          <polygon class="cls-7" points="2.81 6.54 3.59 7.56 11.49 1.45 12.34 0 10.72 .43 2.81 6.54"/>
          <polygon class="cls-6" points="3.14 6.97 3.26 7.13 11.16 1.02 12.34 0 11.04 .86 3.14 6.97"/>
          <rect class="cls-2" x="2.18" y="6.92" width="1.84" height=".41" rx=".19" ry=".19" transform="translate(-.69 13.9) rotate(-127.19)"/>
          <path class="cls-2" d="M.1,9.4H.1c.17,.22,.48,.26,.7,.1H.8c.22-.17,.26-.48,.1-.7H.9c-.17-.22-.48-.26-.7-.1H.2c-.22,.17-.26,.48-.1,.7Z"/>
        </g>
        <path class="cls-6" d="M2.01,7.29h0c.02-.12,.13-.2,.25-.18l.55,.09c.12,.02,.2,.13,.18,.25h0c-.02,.12-.13,.2-.25,.18l-.55-.09c-.12-.02-.2-.13-.18-.25Z"/>
        <path class="cls-6" d="M.52,7.62H.52c-.1,.07-.11,.21-.04,.31l.48,.62c.07,.1,.21,.11,.31,.04h0c.1-.07,.11-.21,.04-.31l-.48-.62c-.07-.1-.21-.11-.31-.04Z"/>
        <path class="cls-6" d="M.84,7.23H.84c-.1,.07-.1,.23,0,.35l.46,.56c.1,.12,.26,.16,.36,.09h0c.1-.07,.1-.23,0-.35l-.46-.56c-.1-.12-.26-.16-.36-.09Z"/>
        <path class="cls-6" d="M1.63,6.63h0c.1-.07,.23-.06,.31,.04l.52,.67c.07,.1,.06,.23-.04,.31h0c-.1,.07-.23,.06-.31-.04l-.52-.67c-.07-.1-.06-.23,.04-.31Z"/>
        <path class="cls-6" d="M1.18,6.84h0c.1-.07,.26-.03,.36,.09l.46,.56c.1,.12,.1,.27,0,.35h0c-.1,.07-.26,.03-.36-.09l-.46-.56c-.1-.12-.1-.27,0-.35Z"/>
      </g>
    </g>
    <g>
      <path class="cls-6" d="M12.07,10.73s-3.13-2.64-4.97-.06l2.8,2.65,2.17-2.59Z"/>
      <path class="cls-2" d="M10.45,13.58c-.12,.31-.47,.45-.77,.31-.3-.14-.45-.51-.33-.82,.12-.32,.47-.46,.77-.32,.31,.14,.46,.51,.33,.83Z"/>
    </g>
  </g>
  <path class="cls-3" d="M11.85,13.15h0c-.58-.22-.87-.87-.65-1.45l.43-1.15c.22-.58,.87-.87,1.45-.65h0c.58,.22,.87,.87,.65,1.45l-.43,1.15c-.22,.58-.87,.87-1.45,.65Z"/>
  <g>
    <path class="cls-3" d="M12.88,5.13h1.58c1.1,0,1.99,.89,1.99,1.99v3.03c0,1.1-.89,1.99-1.99,1.99h-.32c-1.79,0-3.25-1.45-3.25-3.25v-1.77c0-1.1,.89-1.99,1.99-1.99Z"/>
    <path class="cls-4" d="M11.98,8.85l-.09-.43c-.11-.46-.12-.82-.58-.72-.17,.04-.31,.13-.42,.24v.74c0,.33,.05,.64,.13,.94,.2,.19,.5,.29,.79,.22,.22-.12,.28-.54,.17-1Z"/>
    <path class="cls-1" d="M12.09,8.6s-.34-1.59,.63-2.41c0,0,3.02,1.36,4.17,.35,0,0,.07-1.57-2-1.77-2.07-.2-3.52-.03-4,1.45-.42,1.31,.19,2.73,.19,2.73l1.01-.35Z"/>
    <path class="cls-1" d="M14.74,7.77l-1.11-.38c-.11-.04-.17-.16-.13-.27h0c.04-.11,.16-.17,.27-.13l1.11,.38c.11,.04,.17,.16,.13,.27h0c-.04,.11-.16,.17-.27,.13Z"/>
    <path class="cls-1" d="M15.73,7.75l.94-.27c.09-.03,.15-.13,.12-.22h0c-.03-.09-.13-.15-.22-.12l-.94,.27c-.09,.03-.15,.13-.12,.22h0c.03,.09,.13,.15,.22,.12Z"/>
    <path class="cls-1" d="M12.97,9.78c-.18-.42-.44-.79-.79-1.09-.04-.04-.07-.07-.09-.09h0s-.13,.04-.13,.04l.6,2.3c.15,.81,.68,1.52,1.44,1.84,.55,.23,1.38,.44,1.95,.15,.59-.3,1.51-1.25,.48-2.65,0,0-.12,.76-.83,.98-.4,.12-.98,.09-1.47-.16-.09-.04-.17-.1-.25-.15-.35-.27-.59-.55-.69-.72,0,0,0,0,0,0l-.22-.45Z"/>
    <path class="cls-1" d="M15.41,9.29h-1.57c-.45,0-.82,.45-.83,1.01h.02c.27,0,.51-.15,.69-.4,.13-.17,.31-.28,.52-.28h.91c.15,0,.26-.15,.26-.33h0Z"/>
    <path class="cls-1" d="M15.52,9.29h.88c.22,0,.39,.45,.4,1.01h0c-.13,0-.25-.15-.33-.4-.06-.17-.15-.28-.25-.28h-.56c-.07,0-.13-.15-.13-.33h0Z"/>
    <path class="cls-3" d="M11.78,9.69h0c-.46,.11-.92-.18-1.03-.64l-.11-.47c-.11-.46,.18-.92,.64-1.03h0c.46-.11,.48,.26,.58,.72l.09,.43c.11,.46,.05,.88-.17,1Z"/>
    <path class="cls-4" d="M15.59,7.9s.02,.07,.02,.11v.62c0,.23-.19,.42-.42,.42-.12,0-.22-.05-.3-.12,.05,.18,.21,.31,.4,.31,.23,0,.42-.19,.42-.42v-.62c0-.12-.05-.22-.13-.3Z"/>
  </g>
</svg>