<?xml version="1.0" encoding="UTF-8"?>
<svg id="Capa_1" data-name="Capa 1" xmlns="http://www.w3.org/2000/svg" viewBox="0 0 14 31.77">
  <defs>
    <style>
      .cls-1 {
        fill: #423c32;
      }

      .cls-2 {
        fill: #9c865f;
      }

      .cls-3 {
        fill: #76bfb8;
      }

      .cls-4 {
        fill: #dbd2b1;
      }

      .cls-5 {
        fill: #61a7a6;
      }
    </style>
  </defs>
  <g>
    <path class="cls-3" d="M11.29,29.09c-.33-.58-1.12-1.25-1.85-1.81-.74-.57-1.42-1.02-1.48-1.13-.03-.06-.12-.36-.22-.76-.13-.52-.3-1.22-.43-1.77-.12-.52-.21-.91-.21-.91l2.65-.64,.11,1.37,.13,1.63v.14c.06,.05,.12,.09,.17,.14,1.75,1.56,2.27,2.98,2.27,2.98,.05,.87-1.15,.78-1.15,.78Z"/>
    <path class="cls-3" d="M13.44,30.07c-.21-.37-.42-.74-.63-1.11-.15-.26-.3-.52-.49-.76-.43,.15-.79,.29-1.15,.42,.19,.7,.28,1.42,.32,2.19,.08,.36,.34,.69,.68,.88,.09,.05,.18,.09,.28,.08s.19-.09,.22-.22c.17,.1,.39,.13,.59,.08s.38-.15,.53-.28c.11-.09,.2-.21,.21-.34,0-.11-.05-.22-.11-.32-.12-.2-.3-.36-.45-.62Z"/>
  </g>
  <g>
    <path class="cls-3" d="M3.35,23.8l-.16,.19c.05,1.46,.88,5.39,.88,5.39l-1.51,.21s-1.94-5.56-1.97-6.14c-.01-.29,.45-1.09,.91-1.8,.44-.69,.88-1.3,.88-1.3l2.48,1.35,.25,.14-.33,.37-1.43,1.61Z"/>
    <path class="cls-3" d="M2.78,29.09c-.65,.71-1.45,1.3-2.35,1.73-.19,.09-.41,.21-.42,.41,0,.17,.15,.3,.31,.37,.59,.29,1.31,.17,1.95-.04s1.26-.48,1.92-.49c.2,0,.41,.01,.57-.1,.14-.1,.19-.29,.16-.45s-.11-.32-.19-.46c-.17-.3-.83-.88-.83-.88,0,0-.73-.07-1.12-.09Z"/>
  </g>
  <g>
    <g>
      <path class="cls-4" d="M2.21,4.41s-1.04,1.19-1.58,2.1l.71,.28,1.28-2.02-.41-.36Z"/>
      <path class="cls-3" d="M3.62,6.86l-1.09-.64,1.83-2.75-1.03-.34-1.61,1.3,.28,.11v.32s.27,.07,.27,.07l-.77,1.27-.3-.08-.31,.24-.53-.03s-.35,.53-.35,.76,2.73,2.07,2.73,2.07l.89-2.3Z"/>
    </g>
    <g>
      <path class="cls-5" d="M3.88,1.6c-.32-.11-.66-.19-1.02-.24-.19,.18-.41,.33-.67,.46,.04,.24,.05,.49,.02,.74,.15,.08,.35,.01,.44-.12,.1-.13,.11-.31,.1-.47,.07-.03,.13-.06,.2-.07,.12,.06,.22,.13,.31,.22,.23-.16,.44-.33,.61-.52Z"/>
      <path class="cls-5" d="M4.24,1.26c-.25-.19-.49-.39-.71-.62-.48,.08-.96,.17-1.44,.25,0,.15,.05,.3,.18,.45,.33,0,.66-.05,.99-.17,.21,.17,.38,.4,.49,.64,.15-.14,.3-.27,.48-.55Z"/>
      <path class="cls-3" d="M3.4,3.33c-.25-.45-.36-.85-.3-1.35,.35-.14,.69-.42,1.01-.62,0-.21-.02-.38-.04-.55-.34,0-.67-.03-.98-.13-.13-.2-.12-.37-.03-.49,.47,.11,1.04-.13,1.46,.1,.05,.3,.13,.65,.26,.97,.3-.12,.48-.38,.55-.67,.24-.27,.51-.45,.79-.58,.12,.08,.21,.17,.3,.25-.37,.34-.62,.73-.75,1.16-.18,.26-.36,.55-.52,.86,.25-.03,.53-.17,.71-.39,.3,.03,.56,.08,.82,.14-.02,.11-.05,.24-.08,.37-.47-.02-.88,.27-1.24,.55-.36,.28-.75,.59-1.15,.61-.26-.06-.52-.12-.82-.22Z"/>
    </g>
  </g>
  <path class="cls-1" d="M7.36,17.15s-.81-.23-1.97-1.07l-3.86,5.13,.87-.05,.27,.82,1.07-.39,.2,2.19-2.8,1.87,.39,2.28,1.07-.1,.53,.17,.22,.59,.63-.56,.75,.29-.34-4.66,2.07-2.69,.54,4.23,.48-.88,.42,.8,.48-.76,.82,1.67,.41-1.56,.58,.29,.17-.49-.73-5.98-2.27-1.12Z"/>
  <path class="cls-5" d="M8.22,14.17l-.44,3.03c-1.25,.3-2.48-.97-2.48-.97,.08-.18,.07-.45,.04-.7-.04-.29-.11-.54-.11-.54-.35-.55-.52-1.49-.52-1.49l.13-.13,.45-.43,.89,.38,.54,.23,1.48,.63Z"/>
  <path class="cls-2" d="M5.81,7.67l-2.54-1.39-.08,.66-.73,.55,.47,.74-.36,.57,.06,.98-.24,1.1,1.32,.87,.31,2.77,.88-.26,.63,.3,.65-.16,.17,1.23,.49-.3,.14,1.67-.03,1.3,.51-.15,.76,.92,.56-.07,.88,.77s1.98-3.1,1.75-6.69l-.63-.54-1.19,.13-.19,.36-.77-.02-.61-.09c-2.53-.47-3.23-3.05-2.22-5.25Z"/>
  <path class="cls-5" d="M11.4,13.3l-2.89,.34s-2.09-.77-2.91-2.34c-.35-.67-.47-1.49-.11-2.45l4.09,1.79s.46,.43,.91,.89c.36,.37,.7,.76,.77,.95,.16,.44,.15,.83,.15,.83Z"/>
  <g>
    <path class="cls-4" d="M11.19,9c-.09,0-.18-.01-.26,0-.04-.17-.08-.34-.12-.51-.2-.09-.42-.17-.64-.25,.07-.25,.14-.49,.21-.74-.08-.06-.18-.09-.29-.1,.05-.17,.11-.3,.16-.44-.11-.16-.23-.29-.37-.38,.07-.16,.16-.31,.27-.42,.29,.31,.54,.67,.72,1.09,.24,.54,.36,1.16,.31,1.76Z"/>
    <path class="cls-3" d="M10.94,8.36c-.2-.09-.42-.18-.65-.26,.1-.2,.2-.41,.31-.61-.08-.06-.19-.09-.3-.11,.07-.14,.15-.25,.22-.36-.1-.14-.22-.26-.35-.35,.09-.13,.21-.25,.34-.33-.19-.2-.41-.38-.64-.53-.67-.33-1.36-.54-2.04-.5-.68,.04-1.36,.36-1.78,.9s-.55,1.32-.26,2.01c-.23,1.81-.32,2.38-.13,2.86,.19,.46,1.27,.94,2.1,.86,.57-.05,1.61-1.16,1.78-1.57,.69-.04,1.31-.49,1.6-1.1,.07-.14,.12-.29,.16-.45-.09-.02-.19-.03-.28-.03-.02-.15-.05-.29-.07-.44Z"/>
    <path class="cls-1" d="M10.36,6.27c.33-.52,.36-1.22,.07-1.77,.05,.36,0,.74-.14,1.07,0-.65-.39-1.28-.98-1.56,.14,.37,.22,.76,.25,1.15-.34-.58-.96-.99-1.63-1.08,.13,.33,.27,.67,.4,1-.36-.24-.76-.41-1.19-.48,.18,.18,.36,.35,.55,.53-.71-.27-1.57-.11-2.14,.4,.43,.03,1.03,.08,1.46,.11-.32,.11-.48,.36-.61,.71,.52-.37,1.02-.52,1.57-.44-.23,.04-.46,.16-.61,.35,.61,0,1.21-.02,1.82-.03l-.65,.43c.59,.07,1.43,.22,1.82-.39Z"/>
    <path class="cls-5" d="M7.22,6.73c.38-.06,.79,.05,1.1,.28,.12,.09,.24,.21,.38,.28,.2,.1,.43,.09,.64,.15,.34,.09,.63,.33,.78,.64-.06-.32-.3-.6-.61-.71-.19-.07-.4-.07-.59-.14-.2-.08-.35-.24-.54-.35-.36-.22-.82-.27-1.16-.14Z"/>
  </g>
  <g>
    <path class="cls-3" d="M11.08,16.42c-.19,.98-.33,1.73-.33,1.73,0,0,.12,.68,.12,1.05,0,.52-.29,3.86-.29,3.86l-1.16,.24-.29-6.8-.05-1.19h0s.29-1.17,.29-1.17l1.81-.67,.25,1.03v.04c-.12,.64-.25,1.31-.36,1.9Z"/>
    <polygon class="cls-2" points="5.52 11.99 7.29 12.49 8.46 13.25 8.95 12.85 9.33 13.15 10.59 13.14 11.44 12.87 11.78 16.33 11.36 16.16 10.77 15.14 10.59 15.69 10.61 16.77 9.36 16.32 9.02 17.07 8.68 16.39 8.08 16.84 8.61 14.32 5.52 11.99"/>
    <path class="cls-3" d="M9.9,22.63c-.13,.2-.29,.39-.48,.64,.26,.58,.52,1.16,.82,1.74,.2,.19,.43,.36,.68,.49,.07-.07,.13-.14,.22-.23l.32,.1c.07-.08,.14-.17,.24-.29,.09,.06,.32,.02,.32,.02,0,0,.18-.14,.22-.28,.09,.08,.32-.08,.32-.08,0,0,.04-.16,.16-.45,.08-.18,.06-.4-.06-.57-.06-.09-.12-.18-.15-.27-.03-.09-.14-.14-.23-.1h0c-.08,.04-.12,.13-.09,.21,.05,.16,.12,.3,.15,.48-.08,.06-.16,.08-.31,.12-.29-.66-.98-1.09-2.13-1.53Z"/>
  </g>
</svg>